<svg xmlns="http://www.w3.org/2000/svg" version="1.1" xmlns:xlink="http://www.w3.org/1999/xlink" xmlns:svgjs="http://svgjs.dev/svgjs" width="2000" height="308" viewBox="0 0 2000 308"><g transform="matrix(1,0,0,1,-0.2181829494302292,0.36957418286937127)"><svg viewBox="0 0 396 61" data-background-color="#ffffff" preserveAspectRatio="xMidYMid meet" height="308" width="2000" xmlns="http://www.w3.org/2000/svg" xmlns:xlink="http://www.w3.org/1999/xlink"><g id="tight-bounds" transform="matrix(1,0,0,1,0.2400000000000091,-0.07319488686698605)"><svg viewBox="0 0 395.52 61.146389773733944" height="61.146389773733944" width="395.52"><g><svg viewBox="0 0 520.6478581539793 80.49083957712116" height="61.146389773733944" width="395.52"><g><rect width="7.222633810558439" height="80.49083957712116" x="98.99780599117376" y="0" fill="#085f63" opacity="1" stroke-width="0" stroke="transparent" fill-opacity="1" class="rect-qz-0" data-fill-palette-color="primary" rx="1%" id="qz-0" data-palette-color="#085f63"></rect></g><g transform="matrix(1,0,0,1,125.12785815397942,0.2002259690973105)"><svg viewBox="0 0 395.5199999999999 80.09038763892654" height="80.09038763892654" width="395.5199999999999"><g id="textblocktransform"><svg viewBox="0 0 395.5199999999999 80.09038763892654" height="80.09038763892654" width="395.5199999999999" id="textblock"><g><svg viewBox="0 0 395.5199999999999 80.09038763892654" height="80.09038763892654" width="395.5199999999999"><g transform="matrix(1,0,0,1,0,0)"><svg width="395.5199999999999" viewBox="5.7 -37.1 184.44 37.35" height="80.09038763892654" data-palette-color="#085f63"><path d="M5.7 0L5.7-35 9.4-35 9.4-3.2 29-3.2 29 0 5.7 0ZM54.45-26.3L58-26.3 58 0 54.6 0 54.6-5.2Q53-2.55 50.37-1.15 47.75 0.25 44.45 0.25L44.45 0.25Q40.75 0.25 37.75-1.45 34.75-3.15 33.05-6.2 31.35-9.25 31.35-13.15L31.35-13.15Q31.35-17.05 33.05-20.1 34.75-23.15 37.75-24.83 40.75-26.5 44.45-26.5L44.45-26.5Q47.65-26.5 50.22-25.18 52.8-23.85 54.45-21.3L54.45-21.3 54.45-26.3ZM44.75-2.9Q47.5-2.9 49.72-4.17 51.95-5.45 53.22-7.8 54.5-10.15 54.5-13.15L54.5-13.15Q54.5-16.15 53.22-18.5 51.95-20.85 49.72-22.13 47.5-23.4 44.75-23.4L44.75-23.4Q41.95-23.4 39.72-22.13 37.5-20.85 36.22-18.5 34.95-16.15 34.95-13.15L34.95-13.15Q34.95-10.15 36.22-7.8 37.5-5.45 39.72-4.17 41.95-2.9 44.75-2.9L44.75-2.9ZM81.3-26.5Q86.25-26.5 89.17-23.63 92.1-20.75 92.1-15.25L92.1-15.25 92.1 0 88.55 0 88.55-14.9Q88.55-19 86.5-21.15 84.45-23.3 80.65-23.3L80.65-23.3Q76.4-23.3 73.92-20.78 71.45-18.25 71.45-13.8L71.45-13.8 71.45 0 67.9 0 67.9-26.3 71.3-26.3 71.3-21.45Q72.75-23.85 75.32-25.18 77.9-26.5 81.3-26.5L81.3-26.5ZM122.29-37.1L125.84-37.1 125.84 0 122.44 0 122.44-5.2Q120.84-2.55 118.22-1.15 115.59 0.25 112.29 0.25L112.29 0.25Q108.59 0.25 105.59-1.45 102.59-3.15 100.89-6.2 99.19-9.25 99.19-13.15L99.19-13.15Q99.19-17.05 100.89-20.1 102.59-23.15 105.59-24.83 108.59-26.5 112.29-26.5L112.29-26.5Q115.49-26.5 118.07-25.18 120.64-23.85 122.29-21.3L122.29-21.3 122.29-37.1ZM112.59-2.9Q115.34-2.9 117.57-4.17 119.79-5.45 121.07-7.8 122.34-10.15 122.34-13.15L122.34-13.15Q122.34-16.15 121.07-18.5 119.79-20.85 117.57-22.13 115.34-23.4 112.59-23.4L112.59-23.4Q109.79-23.4 107.57-22.13 105.34-20.85 104.07-18.5 102.79-16.15 102.79-13.15L102.79-13.15Q102.79-10.15 104.07-7.8 105.34-5.45 107.57-4.17 109.79-2.9 112.59-2.9L112.59-2.9ZM146.99-2.9Q149.44-2.9 151.52-3.78 153.59-4.65 155.04-6.35L155.04-6.35 157.04-4.05Q155.29-1.95 152.69-0.85 150.09 0.25 146.94 0.25L146.94 0.25Q142.89 0.25 139.74-1.48 136.59-3.2 134.84-6.25 133.09-9.3 133.09-13.15L133.09-13.15Q133.09-17 134.77-20.05 136.44-23.1 139.39-24.8 142.34-26.5 146.09-26.5L146.09-26.5Q149.59-26.5 152.42-24.9 155.24-23.3 156.92-20.45 158.59-17.6 158.69-13.95L158.69-13.95 137.09-9.75Q138.09-6.55 140.72-4.73 143.34-2.9 146.99-2.9L146.99-2.9ZM146.09-23.45Q143.34-23.45 141.17-22.18 138.99-20.9 137.77-18.63 136.54-16.35 136.54-13.4L136.54-13.4Q136.54-12.65 136.59-12.3L136.59-12.3 155.14-15.9Q154.54-19.2 152.09-21.33 149.64-23.45 146.09-23.45L146.09-23.45ZM179.34-26.5Q184.29-26.5 187.21-23.63 190.14-20.75 190.14-15.25L190.14-15.25 190.14 0 186.59 0 186.59-14.9Q186.59-19 184.54-21.15 182.49-23.3 178.69-23.3L178.69-23.3Q174.44-23.3 171.96-20.78 169.49-18.25 169.49-13.8L169.49-13.8 169.49 0 165.94 0 165.94-26.3 169.34-26.3 169.34-21.45Q170.79-23.85 173.36-25.18 175.94-26.5 179.34-26.5L179.34-26.5Z" opacity="1" transform="matrix(1,0,0,1,0,0)" fill="#085f63" class="wordmark-text-0" data-fill-palette-color="primary" id="text-0"></path></svg></g></svg></g></svg></g></svg></g><g transform="matrix(1,0,0,1,0,0.2002259690973105)"><svg viewBox="0 0 80.09038763892654 80.09038763892654" height="80.09038763892654" width="80.09038763892654"><g><svg xmlns="http://www.w3.org/2000/svg" data-name="Layer 1" viewBox="0 0 128 128" x="0" y="0" height="80.09038763892654" width="80.09038763892654" class="icon-icon-0" data-fill-palette-color="accent" id="icon-0"><path d="M124 10H18V9A9 9 0 0 0 0 9V126a2 2 0 0 0 2 2H16a2 2 0 0 0 2-2V98H32.25a2 2 0 0 0 0-4H28V14h96V94H48.33a2 2 0 0 0 0 4H124a4 4 0 0 0 4-4V14A4 4 0 0 0 124 10ZM14 124H4V9A5 5 0 0 1 14 9ZM24 94H18V14h6Z" fill="#49beb7" data-fill-palette-color="accent"></path><polygon points="113.13 78.88 111 72 108.88 78.88 102 78.88 107.56 83.13 105.44 90 111 85.75 116.56 90 114.44 83.13 120 78.88 113.13 78.88" fill="#49beb7" data-fill-palette-color="accent"></polygon><circle cx="40" cy="96" r="2.0" fill="#49beb7" data-fill-palette-color="accent"></circle><path d="M49.24 46.69a8.68 8.68 0 0 1-1.54 0.09H33.5A2 2 0 0 0 32 50.16l2.16 2.29c1.52 1.62 3 3.15 4.44 4.64 1.72 1.73 2.47 3.11 2.44 4.47-0.08 3.73 2.19 5.29 4.17 6.23l0.56 0.27c0.69 0.33 1.41 0.68 2.18 1 3.51 1.33 5 0.67 6.39-2.85 0.89-2.25 0.93-2.24 3.26-1.7 3.39 0.78 5.57 3 6.85 7 0.74 2.29 1.74 4.88 4.25 6.54A2.27 2.27 0 0 1 69.8 80c0.43 5 2.75 6.9 4.63 7.66a47.55 47.55 0 0 0 6.7 2c1 0.24 2 0.48 3 0.75a2 2 0 0 0 0.52 0.07 2 2 0 0 0 1.91-2.6c-0.17-0.55-0.34-1.05-0.49-1.53-0.29-0.9-0.55-1.69-0.77-2.49-1.48-5.38-0.33-8.51 4.23-11.53l0.39-0.25a33.46 33.46 0 0 0 6.63-5.24 5.55 5.55 0 0 1 3.79-2.23c0.88-0.08 2.7-0.24 3.6-1.76a3.89 3.89 0 0 0-0.07-3.67 1.16 1.16 0 0 1-0.07-0.27c1.55-3.45 0.38-6.53-0.57-9-0.17-0.43-0.33-0.87-0.48-1.3a6.31 6.31 0 0 0-0.7-1.35 4.05 4.05 0 0 1-0.28-0.46c-0.13-0.29-0.29-0.57-0.44-0.86a4.85 4.85 0 0 1-0.58-1.36 43 43 0 0 1-0.07-4.38c0-0.49 0-0.94 0-1.34a2 2 0 0 0-0.92-1.68L98 36.09c-1.25-0.82-2.33-1.52-3.47-2.15a4.09 4.09 0 0 0-3.62 0c-2 1-3.23 1.4-4.61 0.65A3.57 3.57 0 0 0 84 34.27l-0.25 0-0.52 0c-2 0.18-3.33 0.25-4.5-0.62a3.8 3.8 0 0 0-3.23-0.31c-1.61 0.37-1.79 0.06-2.12-0.5a4.26 4.26 0 0 0-3.26-1.82 10.83 10.83 0 0 1-1.23-0.17 3.56 3.56 0 0 1-0.19-1.38c-0.08-2.37-0.2-4.74-0.31-7.09l-0.14-3a2 2 0 0 0-2-1.91H51.34a2 2 0 0 0-2 2v1c0 3.84 0 17.75 0 24.57A9.12 9.12 0 0 1 49.24 46.69ZM53.34 45c0-6.3 0-18.68 0-23.54h11l0.05 1.14c0.11 2.34 0.23 4.69 0.31 7 0.13 3.67 1.52 5.13 5.12 5.4a1 1 0 0 1 0.24 0.07c2 3.16 5.14 2.44 6.37 2.16l0.34-0.07c2.33 1.5 4.81 1.28 6.82 1.1l0.5 0 0.46-0.05 0.16 0c3.3 1.61 6.29 0.14 8-0.71h0.05c1 0.54 1.92 1.16 3.11 1.94l0.8 0.52v0.18a46.05 46.05 0 0 0 0.08 4.79 7.43 7.43 0 0 0 1 2.92c0.12 0.23 0.24 0.45 0.35 0.67a7.8 7.8 0 0 0 0.53 0.92 3.53 3.53 0 0 1 0.29 0.5c0.16 0.47 0.34 0.94 0.52 1.41 1 2.53 1.51 4.18 0.61 6.06a4.19 4.19 0 0 0 0 3.22h-0.14a9.6 9.6 0 0 0-6.41 3.53 30.51 30.51 0 0 1-5.86 4.58l-0.39 0.26c-6 4-7.82 8.88-5.88 15.93l0.21 0.74A41.43 41.43 0 0 1 75.93 84c-1.22-0.49-1.94-1.94-2.14-4.29a6.23 6.23 0 0 0-2.83-5c-1.29-0.86-2-2.27-2.65-4.43-1.7-5.29-5-8.52-9.75-9.62a11.84 11.84 0 0 0-2.62-0.35c-2.56 0-4 1.34-5.26 4.48q-0.22 0.57-0.37 0.89c-0.2-0.06-0.48-0.16-0.88-0.31-0.61-0.23-1.22-0.52-1.86-0.83L47 64.18c-1.55-0.73-1.92-1.23-1.89-2.52 0.07-3.3-2-5.8-3.6-7.38-1.11-1.12-2.22-2.28-3.35-3.49h9.57C52 50.78 53.34 49.38 53.34 45Z" fill="#49beb7" data-fill-palette-color="accent"></path></svg></g></svg></g></svg></g><defs></defs></svg><rect width="395.52" height="61.146389773733944" fill="none" stroke="none" visibility="hidden"></rect></g></svg></g></svg>